<svg width="48" height="49" viewBox="0 0 48 49" fill="none" xmlns="http://www.w3.org/2000/svg">
<rect y="0.333496" width="48" height="48" rx="24" fill="#0C8BCA"/>
<path fill-rule="evenodd" clip-rule="evenodd" d="M23.6762 8.3335C23.6006 14.916 23.1702 18.5999 20.7183 21.0518C18.2664 23.5037 14.5825 23.9341 8 24.0097V24.965C14.5825 25.0405 18.2664 25.471 20.7183 27.9229C23.1317 30.3363 23.5866 33.9434 23.6724 40.3335H24.6353C24.721 33.9434 25.1759 30.3363 27.5894 27.9229C30.0028 25.5094 33.6099 25.0545 40 24.9688V24.0058C33.6099 23.9201 30.0028 23.4652 27.5894 21.0518C25.1375 18.5999 24.707 14.916 24.6315 8.3335H23.6762Z" fill="white"/>
</svg>
