<svg width="48" height="49" viewBox="0 0 48 49" fill="none" xmlns="http://www.w3.org/2000/svg">
<rect y="0.333496" width="48" height="48" rx="24" fill="#0C8BCA"/>
<path d="M17.3333 15.0002C17.3333 16.4162 16.3867 17.6348 14.6653 17.6348C13.0453 17.6348 12 16.4855 12 15.0695C12 13.6162 13.0133 12.3335 14.6667 12.3335C16.32 12.3335 17.3013 13.5468 17.3333 15.0002ZM12 36.3335V19.0002H17.3333V36.3335H12ZM20 24.9255C20 22.8655 19.932 21.1442 19.864 19.6575H24.656L24.8933 21.9548H24.9947C25.6693 20.8735 27.3227 19.2882 30.0907 19.2882C33.4667 19.2882 36 21.5482 36 26.4108V36.3335H30.6667V27.1855C30.6667 25.0602 29.8573 23.4388 28 23.4388C26.584 23.4388 25.8747 24.5855 25.5027 25.5308C25.3667 25.8695 25.3333 26.3415 25.3333 26.8148V36.3335H20V24.9255Z" fill="white"/>
</svg>
