<svg width="48" height="49" viewBox="0 0 48 49" fill="none" xmlns="http://www.w3.org/2000/svg">
<rect y="0.333496" width="48" height="48" rx="24" fill="#0C8BCA"/>
<path fill-rule="evenodd" clip-rule="evenodd" d="M38.2938 16.5835C38.5163 15.8785 38.2938 15.366 37.3094 15.366H34.0362C33.2106 15.366 32.8294 15.8147 32.6069 16.2947C32.6069 16.2947 30.9231 20.3947 28.5719 23.0529C27.8094 23.8216 27.46 24.0779 27.0469 24.0779C26.8244 24.0779 26.5381 23.8216 26.5381 23.1172V16.5504C26.5381 15.7179 26.2844 15.3335 25.585 15.3335H20.4375C19.9287 15.3335 19.6112 15.7179 19.6112 16.1022C19.6112 16.9029 20.7869 17.0954 20.9137 19.3372V24.2085C20.9137 25.2654 20.7263 25.4585 20.31 25.4585C19.1981 25.4585 16.4975 21.3266 14.8775 16.6185C14.5625 15.686 14.2425 15.3335 13.4163 15.3335H10.1119C9.15875 15.3335 9 15.7816 9 16.2622C9 17.1272 10.1119 21.4829 14.1788 27.2479C16.8794 31.1854 20.7237 33.3016 24.1869 33.3016C26.2844 33.3016 26.5381 32.821 26.5381 32.0204V29.0416C26.5381 28.081 26.7287 27.921 27.3962 27.921C27.8725 27.921 28.7306 28.1766 30.6688 30.0666C32.8925 32.3085 33.2737 33.3335 34.5131 33.3335H37.7856C38.7388 33.3335 39.1837 32.8529 38.9294 31.9241C38.6437 30.9954 37.5631 29.6504 36.165 28.0491C35.4025 27.1529 34.2587 26.1597 33.9094 25.6791C33.4331 25.0385 33.56 24.7822 33.9094 24.206C33.8775 24.206 37.8813 18.5047 38.2938 16.581" fill="white"/>
</svg>
