<svg width="84" height="84" viewBox="0 0 84 84" fill="none" xmlns="http://www.w3.org/2000/svg">
<g id="material-symbols:video-library-rounded">
<path id="Vector" d="M45.6443 47.2692L60.0536 38.0681C61.1531 37.3737 61.7029 36.3899 61.7029 35.1168C61.7029 33.8437 61.1531 32.8599 60.0536 32.1655L45.6443 22.9644C44.4869 22.1542 43.3006 22.0964 42.0854 22.7908C40.8701 23.4852 40.2625 24.4979 40.2625 25.8289V44.4047C40.2625 45.7357 40.8701 46.7484 42.0854 47.4429C43.3006 48.1373 44.4869 48.0794 45.6443 47.2692ZM28.1101 62.8938C26.2004 62.8938 24.5662 62.2144 23.2074 60.8557C21.8464 59.4946 21.1658 57.8592 21.1658 55.9496V14.2841C21.1658 12.3744 21.8464 10.7391 23.2074 9.37798C24.5662 8.01922 26.2004 7.33984 28.1101 7.33984H69.7755C71.6852 7.33984 73.3206 8.01922 74.6817 9.37798C76.0404 10.7391 76.7198 12.3744 76.7198 14.2841V55.9496C76.7198 57.8592 76.0404 59.4946 74.6817 60.8557C73.3206 62.2144 71.6852 62.8938 69.7755 62.8938H28.1101ZM14.2216 76.7823C12.3119 76.7823 10.6777 76.1029 9.31895 74.7442C7.95788 73.3831 7.27734 71.7477 7.27734 69.838V24.7005C7.27734 23.7167 7.61067 22.8915 8.27732 22.2248C8.94165 21.5605 9.7657 21.2283 10.7495 21.2283C11.7332 21.2283 12.5584 21.5605 13.2251 22.2248C13.8894 22.8915 14.2216 23.7167 14.2216 24.7005V69.838H59.3592C60.3429 69.838 61.167 70.1714 61.8313 70.838C62.498 71.5023 62.8313 72.3264 62.8313 73.3102C62.8313 74.2939 62.498 75.118 61.8313 75.7823C61.167 76.449 60.3429 76.7823 59.3592 76.7823H14.2216Z" fill="white"/>
</g>
</svg>
