<svg width="25" height="24" viewBox="0 0 25 24" fill="none" xmlns="http://www.w3.org/2000/svg">
<path d="M6.20833 2.66667C6.20833 4.08267 5.26167 5.30133 3.54033 5.30133C1.92033 5.30133 0.875 4.152 0.875 2.736C0.875 1.28267 1.88833 0 3.54167 0C5.195 0 6.17633 1.21333 6.20833 2.66667ZM0.875 24V6.66667H6.20833V24H0.875ZM8.875 12.592C8.875 10.532 8.807 8.81067 8.739 7.324H13.531L13.7683 9.62133H13.8697C14.5443 8.54 16.1977 6.95467 18.9657 6.95467C22.3417 6.95467 24.875 9.21467 24.875 14.0773V24H19.5417V14.852C19.5417 12.7267 18.7323 11.1053 16.875 11.1053C15.459 11.1053 14.7497 12.252 14.3777 13.1973C14.2417 13.536 14.2083 14.008 14.2083 14.4813V24H8.875V12.592Z" fill="white"/>
</svg>
